<svg xmlns="http://www.w3.org/2000/svg" viewBox="0 0 344.57 344.57"><defs><style>.cls-1{fill:#fff;}</style></defs><g id="Layer_2" data-name="Layer 2"><g id="Layer_1-2" data-name="Layer 1"><path class="cls-1" d="M258.42,121c-.51-4.61,6.15-8.71,6.15-15.37,0,0-13.14-69.79-22-74.75s-21.78-14.17-37-24.25c-42.68,3.88-57,17.21-61.23,30.55-4.6,14.44,14.44,39.39,7.22,51.21s-26.5,19.7-25.4,31.51,14.24,42.68,10.3,45.31-12.7,5.27-16,2.79-14.12-35.35-20.12-46.13c-6.14-11-36.43-33.54-53.84-8.53-18.72,26.89,21.66,83.38,42,86.67,22.83,3.69,24.29-16.42,24.29-16.42s4.6,26.27-6.56,30.86-34.15-7.88-38.09-17.73S56,260.81,33.53,274.4a0,0,0,0,0,0,0,172,172,0,0,0,137.34,70.15c.22-.5.43-1,.64-1.5h0c-4.74-9.12-29.58-56.7-37.64-68.64-7-10.38-7.65-36-7.65-36s3.11,15.06,15.07,22.59S236.09,285,247,284.06c.38,0,.75-.07,1.12-.12h0a39.17,39.17,0,0,0,12.44-9.52c9.37-11.12-4.53-28.92-3.26-33.58s15.41-.64,16-6.57-7.2-9.74-7.2-9.74L247,228s11.6-12.69,20.44-17.4c-11.67-5.87-14.28-16.23-13-20.14,1.52-4.56,25.47-14.06,30.41-11.78s7.84-2.32,7.84-2.32C291.91,170.23,258.93,125.61,258.42,121Zm-9.05,9.23c-1.53,3.57-9.32,21.79-17,22.85S209,139.35,206.5,136.83l-9.72-9.75c-3.56-3.56,22.91-24.94,38.69-27s26.8,1.68,24.94,9.68C256.84,125.05,250.9,126.67,249.37,130.23ZM198.56,2l-.73-.1c.25,0,.5.07.75.12C198.57,2,198.56,2,198.56,2Z"/><path d="M260.41,109.78c-3.57,15.27-9.51,16.89-11,20.45s-9.32,21.79-17,22.85S209,139.35,206.5,136.83l-9.72-9.75c-3.56-3.56,22.91-24.94,38.69-27S262.27,101.78,260.41,109.78Z"/><path d="M344.57,172.28A172.29,172.29,0,0,1,172.29,344.57l-.79-1.51h0c-4.74-9.12-29.58-56.7-37.64-68.64-7-10.38-7.65-36-7.65-36s3.11,15.06,15.07,22.59S236.09,285,247,284.06c.38,0,.75-.07,1.12-.12h0a39.17,39.17,0,0,0,12.44-9.52c9.37-11.12-4.53-28.92-3.26-33.58s15.41-.64,16-6.57-7.2-9.74-7.2-9.74L247,228s11.6-12.69,20.44-17.4c-11.67-5.87-14.28-16.23-13-20.14,1.52-4.56,25.47-14.06,30.41-11.78s7.84-2.32,7.84-2.32c-.84-6.11-33.82-50.73-34.33-55.34s6.15-8.71,6.15-15.37c0,0-13.14-69.79-22-74.75s-21.78-14.17-37-24.25c-42.68,3.88-57,17.21-61.23,30.55-4.6,14.44,14.44,39.39,7.22,51.21s-26.5,19.7-25.4,31.51,14.24,42.68,10.3,45.31-12.7,5.27-16,2.79-14.12-35.35-20.12-46.13c-6.14-11-36.43-33.54-53.84-8.53-18.72,26.89,21.66,83.38,42,86.67,22.83,3.69,24.29-16.42,24.29-16.42s4.6,26.27-6.56,30.86-34.15-7.88-38.09-17.73S56,260.81,33.53,274.4a0,0,0,0,0,0,0c-1.4-1.91-2.77-3.84-4.09-5.8-.54-.8-1.08-1.6-1.6-2.41s-1.2-1.87-1.8-2.81h0c-.57-.92-1.14-1.85-1.7-2.79s-1.16-2-1.72-2.94-1.09-1.93-1.62-2.9l-.19-.34c-.47-.88-.94-1.76-1.4-2.64s-1-1.94-1.49-2.92l0-.07c-.44-.89-.88-1.78-1.3-2.67q-.25-.51-.48-1c-.37-.79-.73-1.59-1.09-2.39q-.69-1.53-1.35-3.09t-1.29-3.12c-.4-1-.79-2-1.18-3s-.83-2.21-1.22-3.32S9.22,228,8.86,227s-.76-2.31-1.12-3.47c-.29-1-.58-1.89-.85-2.85a3.57,3.57,0,0,1-.12-.4c-.28-.94-.54-1.89-.8-2.84s-.46-1.73-.67-2.59c-.14-.5-.26-1-.38-1.51a0,0,0,0,1,0,0c-.23-.92-.44-1.83-.65-2.75s-.47-2.11-.69-3.17c0-.11,0-.23-.07-.35-.22-1.07-.43-2.14-.62-3.21a.64.64,0,0,0,0-.07c-.12-.67-.24-1.35-.35-2-.17-.92-.32-1.84-.46-2.77q-.16-1-.3-2c-.17-1.15-.32-2.3-.46-3.46S1,191.14.9,190a.2.2,0,0,1,0-.07c-.12-1.14-.22-2.28-.31-3.43s-.16-2-.22-3a.25.25,0,0,1,0-.08c0-.39,0-.78-.07-1.17,0-.62-.07-1.25-.09-1.87a1.34,1.34,0,0,1,0-.2h0c0-.39,0-.77,0-1.16q-.06-1.56-.09-3.12c0-1.18,0-2.36,0-3.54A172.29,172.29,0,0,1,172.29,0l2.58,0q3.15,0,6.29.2l2.61.16c.95.06,1.9.13,2.84.21l2.24.2c1.26.12,2.51.25,3.76.4l2.43.3h0q1.38.18,2.76.39c.25,0,.5.07.75.12l.73.11,1.19.19c1.13.18,2.25.38,3.37.59.74.13,1.49.28,2.23.43.91.18,1.82.36,2.72.56l2.71.61c.9.21,1.8.42,2.69.65s1.53.38,2.28.59l.4.1A172.35,172.35,0,0,1,344.57,172.28Z"/><path d="M172.29,14l2.38,0c1.82,0,3.76.09,5.75.18l2.39.15h.08l2.53.19h.07l1.88.16.15,0c1.28.12,2.4.24,3.42.36h.13l2.09.26,1,.13h0l1.53.22c.28,0,.57.09.86.12l.55.1.2,0,.2,0,.66.11h.09l.08,0c.88.14,1.83.3,3,.52l.08,0h.08l1.87.36h.06l2.44.5,2.54.58c.79.18,1.58.36,2.36.56l.07,0,.08,0c.65.16,1.29.32,1.85.48l.32.09.27.06a159.23,159.23,0,0,1,83.95,55.77,158.29,158.29,0,0,1-125,255.44H171A156.43,156.43,0,0,1,99.2,312.73a159.78,159.78,0,0,1-54.39-46.6c-1.41-1.92-2.64-3.67-3.78-5.35-.48-.71-1-1.42-1.42-2.14l0-.06,0-.06c-.41-.61-.8-1.24-1.2-1.86l-.22-.34-.19-.31c-.53-.85-1-1.72-1.57-2.59l0,0,0,0c-.47-.79-1-1.66-1.56-2.68-.47-.82-1-1.68-1.48-2.65l-.1-.17-.06-.12c-.44-.82-.88-1.64-1.33-2.5-.35-.67-.7-1.36-1-2l-.34-.68c-.4-.82-.81-1.63-1.19-2.44l-.07-.15-.07-.14c-.07-.14-.13-.27-.19-.41l-.06-.15-.07-.14c-.34-.72-.67-1.46-1-2.21-.41-.91-.82-1.85-1.24-2.83s-.78-1.88-1.18-2.86c-.31-.76-.6-1.53-.9-2.3l-.2-.49c-.4-1.05-.75-2-1.09-3s-.7-2-1-3-.62-1.88-1-3.1L21,219.1c-.23-.75-.46-1.49-.67-2.25l-.13-.46,0-.12v0c-.25-.82-.48-1.65-.7-2.49s-.41-1.51-.59-2.26l-.06-.23-.05-.2-.21-.85v0l0-.15L18,208c0-.18-.08-.36-.13-.54-.21-1-.42-1.89-.62-2.84l0-.12v0l-.06-.26c-.22-1.07-.4-2-.55-2.84l-.17-1,0,0c0-.28-.09-.56-.14-.84l0-.15,0-.15c-.13-.69-.26-1.45-.39-2.31v-.19c-.09-.53-.17-1.07-.24-1.6l0-.1v-.09c-.14-.92-.27-1.94-.41-3.1s-.25-2.14-.36-3.22l-.12-1.1c-.06-.63-.11-1.32-.17-2.06v-.15c-.06-.78-.13-1.63-.18-2.62l-.11-1.85v0c0-.29,0-.59,0-.88v-.18l0-.59,0-.12c0-.13,0-.26,0-.39v-.18c0-1-.06-1.9-.08-2.85v-.09c0-.93,0-2,0-3.18A158.28,158.28,0,0,1,172.29,14m0-14A172.29,172.29,0,0,0,0,172.28c0,1.18,0,2.36,0,3.54s0,2.08.09,3.12c0,.39,0,.77,0,1.16h0a1.34,1.34,0,0,0,0,.2c0,.62,0,1.25.09,1.87,0,.39,0,.78.07,1.17a.25.25,0,0,0,0,.08c.06,1,.13,2,.22,3s.19,2.29.31,3.43a.2.2,0,0,0,0,.07q.18,1.75.39,3.48c.14,1.16.29,2.31.46,3.46q.14,1,.3,2c.14.93.29,1.85.46,2.77.11.68.23,1.36.35,2a.64.64,0,0,1,0,.07c.19,1.07.4,2.14.62,3.21,0,.12,0,.24.07.35.22,1.06.45,2.11.69,3.17s.42,1.83.65,2.75a0,0,0,0,0,0,0c.12.5.24,1,.38,1.51.21.86.44,1.73.67,2.59s.52,1.9.8,2.84a3.57,3.57,0,0,0,.12.4c.27,1,.56,1.9.85,2.85.36,1.16.73,2.32,1.12,3.47s.73,2.14,1.11,3.21.8,2.22,1.22,3.32.78,2,1.18,3,.85,2.09,1.29,3.12.89,2.07,1.35,3.09c.36.8.72,1.6,1.09,2.39q.22.51.48,1c.42.89.86,1.78,1.3,2.67l0,.07c.49,1,1,2,1.49,2.92s.93,1.76,1.4,2.64l.19.34c.53,1,1.07,1.94,1.62,2.9s1.13,2,1.72,2.94,1.13,1.87,1.7,2.79h0c.6.94,1.19,1.88,1.8,2.81s1.06,1.61,1.6,2.41c1.32,2,2.69,3.89,4.09,5.8a172,172,0,0,0,137.34,70.15h1.43A172.31,172.31,0,0,0,216.9,5.83l-.4-.1c-.75-.21-1.51-.4-2.28-.59s-1.79-.44-2.69-.65l-2.71-.61c-.9-.2-1.81-.38-2.72-.56-.74-.15-1.49-.3-2.23-.43-1.12-.21-2.24-.41-3.37-.59l-1.05-.17L198.56,2l-.73-.1q-1.38-.21-2.76-.39h0l-2.43-.3c-1.25-.15-2.5-.28-3.76-.4l-2.24-.2c-.94-.08-1.89-.15-2.84-.21L181.16.22Q178,.07,174.87,0l-2.58,0Z"/></g></g></svg>